# xmcd
#
# Track frame offsets:
#	150
#	20205
#	40905
#	62708
#	84953
#	113620
#	132920
#	164373
#	183078
#	202520
#	224508
#
# Disc length: 3248 seconds
# Revision: 8
# Processed by: cddbd v1.5.2PL0 Copyright (c) Steve Scherf et al.
# Submitted via: dBpowerAMP V12.0
#
DISCID=8d0cae0b
DTITLE=Mighty Sam McClain - Give it up to Love
DYEAR=1993
DGENRE=Blues
TTITLE0=Give it up to Love
TTITLE1=Too Proud
TTITLE2=What You Want me to do
TTITLE3=Here I go Falling in Love Again
TTITLE4=Got to Have Your Love
TTITLE5=Child of The Mighty Mighty
TTITLE6=I'm Tired of These Blues
TTITLE7=I Feel Good
TTITLE8=Love me if You Want to
TTITLE9=Don't Turn Back Now
TTITLE10=Lonesome Road
EXTD=
EXTT0=
EXTT1=
EXTT2=
EXTT3=
EXTT4=
EXTT5=
EXTT6=
EXTT7=
EXTT8=
EXTT9=
EXTT10=
PLAYORDER=
